<svg width="30" height="30" viewBox="0 0 30 30" fill="none" xmlns="http://www.w3.org/2000/svg">
<g clip-path="url(#clip0_37_790)">
<mask id="mask0_37_790" style="mask-type:luminance" maskUnits="userSpaceOnUse" x="0" y="0" width="30" height="30">
<path d="M30 0H0V30H30V0Z" fill="white"/>
</mask>
<g mask="url(#mask0_37_790)">
<path d="M23.4375 27.5C25.6811 27.5 27.5 25.6811 27.5 23.4375C27.5 21.1939 25.6811 19.375 23.4375 19.375C21.1939 19.375 19.375 21.1939 19.375 23.4375C19.375 25.6811 21.1939 27.5 23.4375 27.5Z" fill="#212121"/>
<path d="M23.75 10C25.8211 10 27.5 8.32106 27.5 6.25C27.5 4.17894 25.8211 2.5 23.75 2.5C21.6789 2.5 20 4.17894 20 6.25C20 8.32106 21.6789 10 23.75 10Z" fill="#212121"/>
<path d="M6.25 10C8.32106 10 10 8.32106 10 6.25C10 4.17894 8.32106 2.5 6.25 2.5C4.17894 2.5 2.5 4.17894 2.5 6.25C2.5 8.32106 4.17894 10 6.25 10Z" fill="#212121"/>
<path d="M6.03762 10.025C7.25012 13.5 10.5251 15.8375 14.2126 15.8375C14.2251 15.8375 14.2376 15.8375 14.2501 15.8375L18.6626 15.825C20.5626 15.8 22.2626 17.0875 22.7751 18.9375V21.25C22.7751 21.775 23.2001 22.2 23.7376 22.2C24.2626 22.2 24.6876 21.775 24.6876 21.25V7.2C24.6876 6.675 24.2626 6.25 23.7376 6.25C23.2126 6.25 22.7751 6.675 22.7751 7.2V15.475C21.6751 14.5 20.2376 13.9 18.6751 13.9C18.6626 13.9 18.6626 13.9 18.6501 13.9L14.2376 13.9125C14.2251 13.9125 14.2251 13.9125 14.2126 13.9125C11.3501 13.9125 8.78762 12.1 7.85012 9.3875C7.70012 9 7.33762 8.75 6.93762 8.75C6.83762 8.75 6.72512 8.775 6.62512 8.8C6.12512 8.975 5.86262 9.525 6.03762 10.025Z" fill="#212121"/>
</g>
</g>
<defs>
<clipPath id="clip0_37_790">
<rect width="30" height="30" fill="white"/>
</clipPath>
</defs>
</svg>
