<svg width="79" height="79" viewBox="0 0 79 79" fill="none" xmlns="http://www.w3.org/2000/svg">
<path d="M50.2316 73.2406H28.7699C12.6078 73.2406 5.69531 66.3281 5.69531 50.166V49.7381C5.69531 35.1231 11.4557 28.0788 24.3591 26.8609C25.6757 26.7622 26.9266 27.7497 27.0582 29.0993C27.1899 30.4488 26.2024 31.6668 24.8199 31.7984C14.4841 32.753 10.6328 37.6248 10.6328 49.771V50.1989C10.6328 63.596 15.3728 68.336 28.7699 68.336H50.2316C63.6287 68.336 68.3687 63.596 68.3687 50.1989V49.771C68.3687 37.5589 64.4516 32.6872 53.9183 31.7984C52.5687 31.6668 51.5483 30.4818 51.68 29.1322C51.8116 27.7826 52.9637 26.7622 54.3462 26.8938C67.447 28.013 73.3062 35.0902 73.3062 49.8039V50.2319C73.3062 66.3281 66.3937 73.2406 50.2316 73.2406Z" fill="#4A4A4A"/>
<path d="M39.5 51.8441C38.1504 51.8441 37.0312 50.7249 37.0312 49.3754V11.9163C37.0312 10.5667 38.1504 9.44751 39.5 9.44751C40.8496 9.44751 41.9688 10.5667 41.9688 11.9163V49.3754C41.9688 50.7249 40.8496 51.8441 39.5 51.8441Z" fill="#4A4A4A"/>
<path d="M50.5264 21.7264C49.901 21.7264 49.2756 21.496 48.7819 21.0023L39.4994 11.7198L30.2168 21.0023C29.2622 21.9569 27.6822 21.9569 26.7277 21.0023C25.7731 20.0477 25.7731 18.4677 26.7277 17.5131L37.7548 6.48602C38.7094 5.53143 40.2894 5.53143 41.2439 6.48602L52.271 17.5131C53.2256 18.4677 53.2256 20.0477 52.271 21.0023C51.8102 21.496 51.1519 21.7264 50.5264 21.7264Z" fill="#4A4A4A"/>
</svg>
