<svg width="47" height="47" viewBox="0 0 47 47" fill="none" xmlns="http://www.w3.org/2000/svg">
<path d="M20.0073 46.0973C17.6838 46.0973 15.3389 45.4303 13.5318 44.075L4.32417 37.1908C1.89318 35.3837 0 31.5759 0 28.521V12.5798C0 9.28831 2.40949 5.78164 5.50739 4.61993L16.2209 0.59699C18.3507 -0.198997 21.6853 -0.198997 23.8151 0.59699L34.5072 4.61993C37.0242 5.56651 39.154 8.08357 39.8424 10.8803C39.95 11.3536 39.8424 11.8699 39.5412 12.2571C39.2401 12.6444 38.7668 12.881 38.272 12.881L21.2551 12.9025C18.5228 13.0746 17.8559 13.5264 17.8559 17.5064V29.1879C17.8559 33.2969 18.3937 33.8132 22.5674 33.8132H35.3032C35.9701 33.8132 36.5724 34.222 36.8091 34.8459C37.0457 35.4698 36.8736 36.1797 36.3788 36.6315C36.1422 36.8251 35.9486 37.0187 35.7119 37.1908L26.5043 44.0965C24.6541 45.4303 22.3307 46.0973 20.0073 46.0973ZM20.0073 3.24313C19.0392 3.24313 18.0496 3.37221 17.3396 3.65188L6.62605 7.67484C4.81895 8.36324 3.20546 10.6651 3.20546 12.6228V28.564C3.20546 30.5863 4.62533 33.426 6.23882 34.6307L15.4464 41.515C17.9205 43.3436 22.0726 43.3436 24.5466 41.515L30.5057 37.0617H22.5459C16.6082 37.0617 14.6074 35.0825 14.6074 29.2094V17.5278C14.6074 12.9455 15.7046 10.0413 21.1475 9.69708L22.5459 9.67554H35.7764C35.1311 8.75048 34.2705 8.01905 33.367 7.67484L22.6749 3.65188C21.9435 3.37221 20.9754 3.24313 20.0073 3.24313Z" fill="#585858"/>
<path d="M44.6183 22.992H16.2209C15.3389 22.992 14.6074 22.2606 14.6074 21.3786C14.6074 20.4965 15.3389 19.7651 16.2209 19.7651H44.6183C45.5003 19.7651 46.2318 20.4965 46.2318 21.3786C46.2318 22.2606 45.5003 22.992 44.6183 22.992Z" fill="#585858"/>
<path d="M38.2934 37.0398H22.5458C16.6082 37.0398 14.6074 35.0606 14.6074 29.1875V17.506C14.6074 12.9237 15.7046 10.0194 21.1474 9.67516L22.5458 9.65363H38.2934C44.231 9.65363 46.2318 11.6329 46.2318 17.506V29.4457C46.1887 35.1251 44.188 37.0398 38.2934 37.0398ZM22.5458 12.8806L21.2335 12.9021C18.5013 13.0742 17.8344 13.5261 17.8344 17.506V29.1875C17.8344 33.2965 18.3722 33.8128 22.5458 33.8128H38.2934C42.4024 33.8128 42.9618 33.275 43.0048 29.4457V17.5274C43.0048 13.4184 42.467 12.9021 38.2934 12.9021H22.5458V12.8806Z" fill="#585858"/>
<path d="M24.5041 31.6837H21.6213C20.7393 31.6837 20.0078 30.9523 20.0078 30.0702C20.0078 29.1882 20.7393 28.4567 21.6213 28.4567H24.5041C25.3861 28.4567 26.1175 29.1882 26.1175 30.0702C26.1175 30.9523 25.4076 31.6837 24.5041 31.6837Z" fill="#585858"/>
<path d="M36.0575 31.6837H29.0227C28.1406 31.6837 27.4092 30.9523 27.4092 30.0702C27.4092 29.1882 28.1406 28.4567 29.0227 28.4567H36.0575C36.9395 28.4567 37.671 29.1882 37.671 30.0702C37.671 30.9523 36.961 31.6837 36.0575 31.6837Z" fill="#585858"/>
</svg>
