<svg width="58" height="57" viewBox="0 0 58 57" fill="none" xmlns="http://www.w3.org/2000/svg">
<g clip-path="url(#clip0_63_3225)">
<mask id="mask0_63_3225" style="mask-type:luminance" maskUnits="userSpaceOnUse" x="0" y="0" width="58" height="57">
<path d="M58 0H0V57H58V0Z" fill="white"/>
</mask>
<g mask="url(#mask0_63_3225)">
<path d="M29.0003 38.7835C23.2245 38.7835 18.5361 34.176 18.5361 28.4998C18.5361 22.8236 23.2245 18.2161 29.0003 18.2161C34.7761 18.2161 39.4644 22.8236 39.4644 28.4998C39.4644 34.176 34.7761 38.7835 29.0003 38.7835ZM29.0003 21.7786C25.2303 21.7786 22.1611 24.7948 22.1611 28.4998C22.1611 32.2048 25.2303 35.221 29.0003 35.221C32.7703 35.221 35.8394 32.2048 35.8394 28.4998C35.8394 24.7948 32.7703 21.7786 29.0003 21.7786Z" fill="#585858"/>
<path d="M29.0004 49.9237C19.9137 49.9237 11.3345 44.6987 5.43785 35.6262C2.87618 31.7074 2.87618 25.3187 5.43785 21.3761C11.3587 12.3036 19.9379 7.07861 29.0004 7.07861C38.0629 7.07861 46.6421 12.3036 52.5387 21.3761C55.1004 25.2949 55.1004 31.6837 52.5387 35.6262C46.6421 44.6987 38.0629 49.9237 29.0004 49.9237ZM29.0004 10.6411C21.1945 10.6411 13.727 15.2486 8.50702 23.2999C6.69452 26.0787 6.69452 30.9237 8.50702 33.7024C13.727 41.7537 21.1945 46.3612 29.0004 46.3612C36.8062 46.3612 44.2737 41.7537 49.4937 33.7024C51.3062 30.9237 51.3062 26.0787 49.4937 23.2999C44.2737 15.2486 36.8062 10.6411 29.0004 10.6411Z" fill="#585858"/>
</g>
</g>
<defs>
<clipPath id="clip0_63_3225">
<rect width="58" height="57" fill="white"/>
</clipPath>
</defs>
</svg>
