<svg width="104" height="193" viewBox="0 0 104 193" fill="none" xmlns="http://www.w3.org/2000/svg">
<mask id="path-1-outside-1_5_199" maskUnits="userSpaceOnUse" x="-0.0599976" y="-0.471924" width="105" height="193" fill="black">
<rect fill="white" x="-0.0599976" y="-0.471924" width="105" height="193"/>
<path d="M59.272 187.528V38.2801H5V5.00006H98.952V187.528H59.272Z"/>
</mask>
<path d="M59.272 187.528V38.2801H5V5.00006H98.952V187.528H59.272Z" fill="url(#paint0_linear_5_199)"/>
<path d="M59.272 187.528H54.272V192.528H59.272V187.528ZM59.272 38.2801H64.272V33.2801H59.272V38.2801ZM5 38.2801H0V43.2801H5V38.2801ZM5 5.00006V6.10352e-05H0V5.00006H5ZM98.952 5.00006H103.952V6.10352e-05H98.952V5.00006ZM98.952 187.528V192.528H103.952V187.528H98.952ZM59.272 187.528H64.272V38.2801H59.272H54.272V187.528H59.272ZM59.272 38.2801V33.2801H5V38.2801V43.2801H59.272V38.2801ZM5 38.2801H10V5.00006H5H0V38.2801H5ZM5 5.00006V10.0001H98.952V5.00006V6.10352e-05H5V5.00006ZM98.952 5.00006H93.952V187.528H98.952H103.952V5.00006H98.952ZM98.952 187.528V182.528H59.272V187.528V192.528H98.952V187.528Z" fill="white" mask="url(#path-1-outside-1_5_199)"/>
<defs>
<linearGradient id="paint0_linear_5_199" x1="1.98325" y1="202.028" x2="5.60998" y2="-15.9299" gradientUnits="userSpaceOnUse">
<stop offset="0.461538" stop-color="white"/>
<stop offset="0.461638" stop-color="#999999"/>
<stop offset="0.461738"/>
</linearGradient>
</defs>
</svg>
