<svg width="215" height="193" viewBox="0 0 215 193" fill="none" xmlns="http://www.w3.org/2000/svg">
<mask id="path-1-outside-1_5_218" maskUnits="userSpaceOnUse" x="-0.680054" y="-0.21582" width="215" height="193" fill="black">
<rect fill="white" x="-0.680054" y="-0.21582" width="215" height="193"/>
<path d="M4.99995 187.784V133.512C4.99995 116.446 9.77861 103.219 19.3359 93.8322C28.8933 84.4455 42.8026 79.7522 61.0639 79.7522H145.288C161.501 79.7522 169.608 72.8402 169.608 59.0162C169.608 45.1922 161.501 38.2802 145.288 38.2802H9.09595V5.00017H153.224C170.973 5.00017 184.712 9.77883 194.44 19.3362C204.339 28.8935 209.288 42.1202 209.288 59.0162C209.288 75.9122 204.339 89.1388 194.44 98.6962C184.712 108.254 170.973 113.032 153.224 113.032H66.696C59.3573 113.032 53.8106 114.91 50.056 118.664C46.4719 122.248 44.6799 127.368 44.6799 134.024V154.76H204.424V187.784H4.99995Z"/>
</mask>
<path d="M4.99995 187.784V133.512C4.99995 116.446 9.77861 103.219 19.3359 93.8322C28.8933 84.4455 42.8026 79.7522 61.0639 79.7522H145.288C161.501 79.7522 169.608 72.8402 169.608 59.0162C169.608 45.1922 161.501 38.2802 145.288 38.2802H9.09595V5.00017H153.224C170.973 5.00017 184.712 9.77883 194.44 19.3362C204.339 28.8935 209.288 42.1202 209.288 59.0162C209.288 75.9122 204.339 89.1388 194.44 98.6962C184.712 108.254 170.973 113.032 153.224 113.032H66.696C59.3573 113.032 53.8106 114.91 50.056 118.664C46.4719 122.248 44.6799 127.368 44.6799 134.024V154.76H204.424V187.784H4.99995Z" fill="url(#paint0_linear_5_218)"/>
<path d="M4.99995 187.784H-5.34058e-05V192.784H4.99995V187.784ZM9.09595 38.2802H4.09595V43.2802H9.09595V38.2802ZM9.09595 5.00017V0.000167847H4.09595V5.00017H9.09595ZM194.44 19.3362L190.936 22.9028L190.951 22.9181L190.967 22.9332L194.44 19.3362ZM194.44 98.6962L190.967 95.0992L190.951 95.1143L190.936 95.1295L194.44 98.6962ZM50.056 118.664L53.5915 122.2L50.056 118.664ZM44.6799 154.76H39.6799V159.76H44.6799V154.76ZM204.424 154.76H209.424V149.76H204.424V154.76ZM204.424 187.784V192.784H209.424V187.784H204.424ZM4.99995 187.784H9.99995V133.512H4.99995H-5.34058e-05V187.784H4.99995ZM4.99995 133.512H9.99995C9.99995 117.4 14.4841 105.606 22.8395 97.3994L19.3359 93.8322L15.8324 90.2649C5.07313 100.832 -5.34058e-05 115.491 -5.34058e-05 133.512H4.99995ZM19.3359 93.8322L22.8395 97.3994C31.1643 89.2233 43.6266 84.7522 61.0639 84.7522V79.7522V74.7522C41.9786 74.7522 26.6223 79.6677 15.8324 90.2649L19.3359 93.8322ZM61.0639 79.7522V84.7522H145.288V79.7522V74.7522H61.0639V79.7522ZM145.288 79.7522V84.7522C153.988 84.7522 161.445 82.9147 166.772 78.3729C172.251 73.7011 174.608 66.9258 174.608 59.0162H169.608H164.608C164.608 64.9305 162.911 68.5233 160.284 70.7634C157.504 73.1337 152.802 74.7522 145.288 74.7522V79.7522ZM169.608 59.0162H174.608C174.608 51.1065 172.251 44.3313 166.772 39.6594C161.445 35.1177 153.988 33.2802 145.288 33.2802V38.2802V43.2802C152.802 43.2802 157.504 44.8987 160.284 47.2689C162.911 49.5091 164.608 53.1018 164.608 59.0162H169.608ZM145.288 38.2802V33.2802H9.09595V38.2802V43.2802H145.288V38.2802ZM9.09595 38.2802H14.0959V5.00017H9.09595H4.09595V38.2802H9.09595ZM9.09595 5.00017V10.0002H153.224V5.00017V0.000167847H9.09595V5.00017ZM153.224 5.00017V10.0002C170.073 10.0002 182.4 14.5166 190.936 22.9028L194.44 19.3362L197.944 15.7695C187.024 5.0411 171.873 0.000167847 153.224 0.000167847V5.00017ZM194.44 19.3362L190.967 22.9332C199.675 31.3412 204.288 43.1463 204.288 59.0162H209.288H214.288C214.288 41.094 209.002 26.4458 197.913 15.7392L194.44 19.3362ZM209.288 59.0162H204.288C204.288 74.886 199.675 86.6912 190.967 95.0992L194.44 98.6962L197.913 102.293C209.002 91.5865 214.288 76.9383 214.288 59.0162H209.288ZM194.44 98.6962L190.936 95.1295C182.4 103.516 170.073 108.032 153.224 108.032V113.032V118.032C171.873 118.032 187.024 112.991 197.944 102.263L194.44 98.6962ZM153.224 113.032V108.032H66.696V113.032V118.032H153.224V113.032ZM66.696 113.032V108.032C58.5479 108.032 51.5239 110.125 46.5204 115.129L50.056 118.664L53.5915 122.2C56.0973 119.694 60.1667 118.032 66.696 118.032V113.032ZM50.056 118.664L46.5204 115.129C41.7323 119.917 39.6799 126.473 39.6799 134.024H44.6799H49.6799C49.6799 128.263 51.2115 124.58 53.5915 122.2L50.056 118.664ZM44.6799 134.024H39.6799V154.76H44.6799H49.6799V134.024H44.6799ZM44.6799 154.76V159.76H204.424V154.76V149.76H44.6799V154.76ZM204.424 154.76H199.424V187.784H204.424H209.424V154.76H204.424ZM204.424 187.784V182.784H4.99995V187.784V192.784H204.424V187.784Z" fill="white" mask="url(#path-1-outside-1_5_218)"/>
<defs>
<linearGradient id="paint0_linear_5_218" x1="93.347" y1="202.284" x2="96.7101" y2="-15.6823" gradientUnits="userSpaceOnUse">
<stop offset="0.461538" stop-color="white"/>
<stop offset="0.461638" stop-color="#999999"/>
<stop offset="0.461738"/>
</linearGradient>
</defs>
</svg>
