<svg width="215" height="193" viewBox="0 0 215 193" fill="none" xmlns="http://www.w3.org/2000/svg">
<mask id="path-1-outside-1_5_210" maskUnits="userSpaceOnUse" x="-0.679993" y="-0.21582" width="215" height="193" fill="black">
<rect fill="white" x="-0.679993" y="-0.21582" width="215" height="193"/>
<path d="M5.00001 187.784V154.504H145.8C152.285 154.504 157.149 152.712 160.392 149.128C163.635 145.374 165.256 140.254 165.256 133.768C165.256 127.112 163.635 121.907 160.392 118.152C157.149 114.398 152.285 112.52 145.8 112.52H29.064V79.4962H145.544C158.685 79.4962 165.256 72.5842 165.256 58.7602C165.256 45.1068 158.685 38.2802 145.544 38.2802H5.00001V5.00017H153.224C170.973 5.00017 184.712 9.4375 194.44 18.3122C204.339 27.0162 209.288 39.2188 209.288 54.9202C209.288 63.4535 207.667 71.5602 204.424 79.2402C201.181 86.7495 195.805 92.2962 188.296 95.8802C195.805 99.6348 201.181 105.182 204.424 112.52C207.667 119.688 209.288 127.624 209.288 136.328C209.288 151.859 204.339 164.318 194.44 173.704C184.712 183.091 170.973 187.784 153.224 187.784H5.00001Z"/>
</mask>
<path d="M5.00001 187.784V154.504H145.8C152.285 154.504 157.149 152.712 160.392 149.128C163.635 145.374 165.256 140.254 165.256 133.768C165.256 127.112 163.635 121.907 160.392 118.152C157.149 114.398 152.285 112.52 145.8 112.52H29.064V79.4962H145.544C158.685 79.4962 165.256 72.5842 165.256 58.7602C165.256 45.1068 158.685 38.2802 145.544 38.2802H5.00001V5.00017H153.224C170.973 5.00017 184.712 9.4375 194.44 18.3122C204.339 27.0162 209.288 39.2188 209.288 54.9202C209.288 63.4535 207.667 71.5602 204.424 79.2402C201.181 86.7495 195.805 92.2962 188.296 95.8802C195.805 99.6348 201.181 105.182 204.424 112.52C207.667 119.688 209.288 127.624 209.288 136.328C209.288 151.859 204.339 164.318 194.44 173.704C184.712 183.091 170.973 187.784 153.224 187.784H5.00001Z" fill="url(#paint0_linear_5_210)"/>
<path d="M5.00001 187.784H7.62939e-06V192.784H5.00001V187.784ZM5.00001 154.504V149.504H7.62939e-06V154.504H5.00001ZM160.392 149.128L164.1 152.483L164.138 152.44L164.176 152.396L160.392 149.128ZM160.392 118.152L164.176 114.884L160.392 118.152ZM29.064 112.52H24.064V117.52H29.064V112.52ZM29.064 79.4962V74.4962H24.064V79.4962H29.064ZM5.00001 38.2802H7.62939e-06V43.2802H5.00001V38.2802ZM5.00001 5.00017V0.000167847H7.62939e-06V5.00017H5.00001ZM194.44 18.3122L191.07 22.006L191.104 22.0368L191.138 22.067L194.44 18.3122ZM204.424 79.2402L209.014 81.2224L209.022 81.2037L209.03 81.185L204.424 79.2402ZM188.296 95.8802L186.142 91.3678L176.907 95.7757L186.06 100.352L188.296 95.8802ZM204.424 112.52L199.851 114.541L199.859 114.561L199.868 114.581L204.424 112.52ZM194.44 173.704L191 170.076L190.984 170.091L190.968 170.106L194.44 173.704ZM5.00001 187.784H10V154.504H5.00001H7.62939e-06V187.784H5.00001ZM5.00001 154.504V159.504H145.8V154.504V149.504H5.00001V154.504ZM145.8 154.504V159.504C153.192 159.504 159.616 157.439 164.1 152.483L160.392 149.128L156.684 145.774C154.683 147.986 151.378 149.504 145.8 149.504V154.504ZM160.392 149.128L164.176 152.396C168.418 147.485 170.256 141.078 170.256 133.768H165.256H160.256C160.256 139.429 158.851 143.262 156.608 145.86L160.392 149.128ZM165.256 133.768H170.256C170.256 126.326 168.437 119.817 164.176 114.884L160.392 118.152L156.608 121.42C158.833 123.996 160.256 127.899 160.256 133.768H165.256ZM160.392 118.152L164.176 114.884C159.712 109.715 153.263 107.52 145.8 107.52V112.52V117.52C151.308 117.52 154.587 119.08 156.608 121.42L160.392 118.152ZM145.8 112.52V107.52H29.064V112.52V117.52H145.8V112.52ZM29.064 112.52H34.064V79.4962H29.064H24.064V112.52H29.064ZM29.064 79.4962V84.4962H145.544V79.4962V74.4962H29.064V79.4962ZM145.544 79.4962V84.4962C152.952 84.4962 159.41 82.5354 163.952 77.7571C168.449 73.0262 170.256 66.3815 170.256 58.7602H165.256H160.256C160.256 64.9629 158.777 68.6862 156.704 70.8673C154.676 73.0009 151.278 74.4962 145.544 74.4962V79.4962ZM165.256 58.7602H170.256C170.256 51.2096 168.442 44.6199 163.93 39.9328C159.385 35.2101 152.935 33.2802 145.544 33.2802V38.2802V43.2802C151.294 43.2802 154.701 44.7635 156.726 46.8675C158.785 49.0071 160.256 52.6574 160.256 58.7602H165.256ZM145.544 38.2802V33.2802H5.00001V38.2802V43.2802H145.544V38.2802ZM5.00001 38.2802H10V5.00017H5.00001H7.62939e-06V38.2802H5.00001ZM5.00001 5.00017V10.0002H153.224V5.00017V0.000167847H5.00001V5.00017ZM153.224 5.00017V10.0002C170.167 10.0002 182.544 14.2275 191.07 22.006L194.44 18.3122L197.81 14.6183C186.88 4.64748 171.78 0.000167847 153.224 0.000167847V5.00017ZM194.44 18.3122L191.138 22.067C199.75 29.6395 204.288 40.3553 204.288 54.9202H209.288H214.288C214.288 38.0824 208.927 24.3928 197.742 14.5573L194.44 18.3122ZM209.288 54.9202H204.288C204.288 62.8016 202.794 70.2455 199.818 77.2953L204.424 79.2402L209.03 81.185C212.539 72.8749 214.288 64.1054 214.288 54.9202H209.288ZM204.424 79.2402L199.834 77.258C197.08 83.6361 192.581 88.2948 186.142 91.3678L188.296 95.8802L190.45 100.393C199.03 96.2975 205.283 89.8629 209.014 81.2224L204.424 79.2402ZM188.296 95.8802L186.06 100.352C192.581 103.613 197.101 108.319 199.851 114.541L204.424 112.52L208.997 110.499C205.261 102.044 199.03 95.6568 190.532 91.408L188.296 95.8802ZM204.424 112.52L199.868 114.581C202.788 121.036 204.288 128.259 204.288 136.328H209.288H214.288C214.288 126.99 212.545 118.341 208.98 110.459L204.424 112.52ZM209.288 136.328H204.288C204.288 150.695 199.761 161.768 191 170.076L194.44 173.704L197.88 177.332C208.917 166.867 214.288 153.023 214.288 136.328H209.288ZM194.44 173.704L190.968 170.106C182.435 178.339 170.097 182.784 153.224 182.784V187.784V192.784C171.85 192.784 186.989 187.842 197.912 177.302L194.44 173.704ZM153.224 187.784V182.784H5.00001V187.784V192.784H153.224V187.784Z" fill="white" mask="url(#path-1-outside-1_5_210)"/>
<defs>
<linearGradient id="paint0_linear_5_210" x1="93.347" y1="202.284" x2="96.7101" y2="-15.6823" gradientUnits="userSpaceOnUse">
<stop offset="0.461538" stop-color="white"/>
<stop offset="0.461638" stop-color="#999999"/>
<stop offset="0.461738"/>
</linearGradient>
</defs>
</svg>
