<svg width="241" height="193" viewBox="0 0 241 193" fill="none" xmlns="http://www.w3.org/2000/svg">
<mask id="path-1-outside-1_5_214" maskUnits="userSpaceOnUse" x="-0.23999" y="-0.21582" width="241" height="193" fill="black">
<rect fill="white" x="-0.23999" y="-0.21582" width="241" height="193"/>
<path d="M5.00001 154.248V120.712L101.256 5.00017H151.688L53.896 120.968H152.712V78.9842H192.392V120.968H235.4V154.248H192.392V187.784H152.712V154.248H5.00001Z"/>
</mask>
<path d="M5.00001 154.248V120.712L101.256 5.00017H151.688L53.896 120.968H152.712V78.9842H192.392V120.968H235.4V154.248H192.392V187.784H152.712V154.248H5.00001Z" fill="url(#paint0_linear_5_214)"/>
<path d="M5.00001 154.248H1.04904e-05V159.248H5.00001V154.248ZM5.00001 120.712L1.15612 117.515L1.04904e-05 118.904V120.712H5.00001ZM101.256 5.00017V0.000167847H98.9115L97.4121 1.80259L101.256 5.00017ZM151.688 5.00017L155.51 8.22345L162.445 0.000167847H151.688V5.00017ZM53.896 120.968L50.0736 117.745L43.1392 125.968H53.896V120.968ZM152.712 120.968V125.968H157.712V120.968H152.712ZM152.712 78.9842V73.9842H147.712V78.9842H152.712ZM192.392 78.9842H197.392V73.9842H192.392V78.9842ZM192.392 120.968H187.392V125.968H192.392V120.968ZM235.4 120.968H240.4V115.968H235.4V120.968ZM235.4 154.248V159.248H240.4V154.248H235.4ZM192.392 154.248V149.248H187.392V154.248H192.392ZM192.392 187.784V192.784H197.392V187.784H192.392ZM152.712 187.784H147.712V192.784H152.712V187.784ZM152.712 154.248H157.712V149.248H152.712V154.248ZM5.00001 154.248H10V120.712H5.00001H1.04904e-05V154.248H5.00001ZM5.00001 120.712L8.8439 123.91L105.1 8.19774L101.256 5.00017L97.4121 1.80259L1.15612 117.515L5.00001 120.712ZM101.256 5.00017V10.0002H151.688V5.00017V0.000167847H101.256V5.00017ZM151.688 5.00017L147.866 1.77689L50.0736 117.745L53.896 120.968L57.7184 124.191L155.51 8.22345L151.688 5.00017ZM53.896 120.968V125.968H152.712V120.968V115.968H53.896V120.968ZM152.712 120.968H157.712V78.9842H152.712H147.712V120.968H152.712ZM152.712 78.9842V83.9842H192.392V78.9842V73.9842H152.712V78.9842ZM192.392 78.9842H187.392V120.968H192.392H197.392V78.9842H192.392ZM192.392 120.968V125.968H235.4V120.968V115.968H192.392V120.968ZM235.4 120.968H230.4V154.248H235.4H240.4V120.968H235.4ZM235.4 154.248V149.248H192.392V154.248V159.248H235.4V154.248ZM192.392 154.248H187.392V187.784H192.392H197.392V154.248H192.392ZM192.392 187.784V182.784H152.712V187.784V192.784H192.392V187.784ZM152.712 187.784H157.712V154.248H152.712H147.712V187.784H152.712ZM152.712 154.248V149.248H5.00001V154.248V159.248H152.712V154.248Z" fill="white" mask="url(#path-1-outside-1_5_214)"/>
<defs>
<linearGradient id="paint0_linear_5_214" x1="102.572" y1="202.284" x2="105.568" y2="-15.693" gradientUnits="userSpaceOnUse">
<stop offset="0.461538" stop-color="white"/>
<stop offset="0.461638" stop-color="#999999"/>
<stop offset="0.461738"/>
</linearGradient>
</defs>
</svg>
