<svg width="1608" height="741" viewBox="0 0 1608 741" fill="none" xmlns="http://www.w3.org/2000/svg">
<path d="M-376.144 2.5V199.959H35.7461L36.2705 201.76L63.0967 293.879L63.5146 295.314L62.4473 296.362L-72.6953 428.973L-73.4248 429.688H-405.5V494.537H3.98438L98.1279 400.394H301.205L301.873 401.854L417.113 653.974H1110.17L1110.77 655.604L1141.55 738.5H1306.99L1323.17 682.604L1323.69 680.799H1605.5V464.37L1507.94 313.781H1358.13L1310.79 371.08L1310.04 371.987H800.248L799.529 370.726L614.49 46.0283H370.301L317.829 86.5059L317.154 87.0264H3.375L2.72363 85.5166L-33.0684 2.5H-376.144Z" stroke="white" stroke-opacity="0.2" stroke-width="5"/>
</svg>
