<svg width="1773" height="732" viewBox="0 0 1773 732" fill="none" xmlns="http://www.w3.org/2000/svg">
<path d="M1960 2.5V197.5H1553.12L1552.6 199.301L1526.1 290.301L1525.68 291.737L1526.75 292.784L1660.25 423.784L1660.98 424.5H1989V488.5H1584.54L1491.54 395.5H1290.89L1290.23 396.961L1176.39 646H491.762L491.156 647.63L460.762 729.5H297.379L281.401 674.305L280.879 672.5H2.5V458.739L98.8594 310H246.822L293.572 366.592L294.322 367.5H797.953L798.672 366.238L981.453 45.5H1222.65L1274.47 85.4795L1275.15 86H1585.14L1585.8 84.4902L1621.14 2.5H1960Z" stroke="white" stroke-opacity="0.2" stroke-width="5"/>
</svg>
