<svg width="1920" height="732" viewBox="0 0 1920 732" fill="none" xmlns="http://www.w3.org/2000/svg">
<mask id="path-1-inside-1_5_195" fill="white">
<path d="M1581.5 0H1924.5V200H1517L1490.5 291L1624 422H1953.5V491H1545.5L1452.5 398H1254.5L1140 648.5H455.5L424.5 732H257.5L241 675H-38V458L59.5 307.5H210L257.5 365H758.5L942 43H1185.5L1238 83.5H1545.5L1581.5 0Z"/>
</mask>
<path d="M1924.5 0H2424.5V-500H1924.5V0ZM1581.5 0V-500H1252.58L1122.36 -197.955L1581.5 0ZM1545.5 83.5V583.5H1874.42L2004.64 281.455L1545.5 83.5ZM1238 83.5L932.598 479.391L1067.55 583.5H1238V83.5ZM1185.5 43L1490.9 -352.891L1355.95 -457H1185.5V43ZM942 43V-457H651.447L507.588 -204.561L942 43ZM758.5 365V865H1049.05L1192.91 612.561L758.5 365ZM257.5 365L-127.981 683.441L22.0029 865H257.5V365ZM210 307.5L595.481 -10.9407L445.497 -192.5H210V307.5ZM59.5 307.5V-192.5H-212.335L-360.135 35.6432L59.5 307.5ZM-38 458L-457.635 186.143L-538 310.193V458H-38ZM-38 675H-538V1175H-38V675ZM241 675L721.282 535.971L616.791 175H241V675ZM257.5 732L-222.782 871.029L-118.291 1232H257.5V732ZM424.5 732V1232H772.217L893.239 906.023L424.5 732ZM455.5 648.5V148.5H107.783L-13.2388 474.477L455.5 648.5ZM1140 648.5V1148.5H1461.21L1594.75 856.358L1140 648.5ZM1254.5 398V-102H933.287L799.753 190.142L1254.5 398ZM1452.5 398L1806.05 44.4466L1659.61 -102H1452.5V398ZM1545.5 491L1191.95 844.553L1338.39 991H1545.5V491ZM1953.5 491V991H2453.5V491H1953.5ZM1953.5 422H2453.5V-78H1953.5V422ZM1624 422L1273.8 778.879L1419.66 922H1624V422ZM1490.5 291L1010.44 151.203L926.811 438.384L1140.3 647.879L1490.5 291ZM1517 200V-300H1141.84L1036.94 60.2026L1517 200ZM1924.5 200V700H2424.5V200H1924.5ZM1924.5 0V-500H1581.5V0V500H1924.5V0ZM1581.5 0L1122.36 -197.955L1086.36 -114.455L1545.5 83.5L2004.64 281.455L2040.64 197.955L1581.5 0ZM1545.5 83.5V-416.5H1238V83.5V583.5H1545.5V83.5ZM1238 83.5L1543.4 -312.391L1490.9 -352.891L1185.5 43L880.098 438.891L932.598 479.391L1238 83.5ZM1185.5 43V-457H942V43V543H1185.5V43ZM942 43L507.588 -204.561L324.088 117.439L758.5 365L1192.91 612.561L1376.41 290.561L942 43ZM758.5 365V-135H257.5V365V865H758.5V365ZM257.5 365L642.981 46.5593L595.481 -10.9407L210 307.5L-175.481 625.941L-127.981 683.441L257.5 365ZM210 307.5V-192.5H59.5V307.5V807.5H210V307.5ZM59.5 307.5L-360.135 35.6432L-457.635 186.143L-38 458L381.635 729.857L479.135 579.357L59.5 307.5ZM-38 458H-538V675H-38H462V458H-38ZM-38 675V1175H241V675V175H-38V675ZM241 675L-239.282 814.029L-222.782 871.029L257.5 732L737.782 592.971L721.282 535.971L241 675ZM257.5 732V1232H424.5V732V232H257.5V732ZM424.5 732L893.239 906.023L924.239 822.523L455.5 648.5L-13.2388 474.477L-44.2388 557.977L424.5 732ZM455.5 648.5V1148.5H1140V648.5V148.5H455.5V648.5ZM1140 648.5L1594.75 856.358L1709.25 605.858L1254.5 398L799.753 190.142L685.253 440.642L1140 648.5ZM1254.5 398V898H1452.5V398V-102H1254.5V398ZM1452.5 398L1098.95 751.553L1191.95 844.553L1545.5 491L1899.05 137.447L1806.05 44.4466L1452.5 398ZM1545.5 491V991H1953.5V491V-9H1545.5V491ZM1953.5 491H2453.5V422H1953.5H1453.5V491H1953.5ZM1953.5 422V-78H1624V422V922H1953.5V422ZM1624 422L1974.2 65.1208L1840.7 -65.8792L1490.5 291L1140.3 647.879L1273.8 778.879L1624 422ZM1490.5 291L1970.56 430.797L1997.06 339.797L1517 200L1036.94 60.2026L1010.44 151.203L1490.5 291ZM1517 200V700H1924.5V200V-300H1517V200ZM1924.5 200H2424.5V0H1924.5H1424.5V200H1924.5Z" fill="url(#paint0_linear_5_195)" fill-opacity="0.3" mask="url(#path-1-inside-1_5_195)"/>
<defs>
<linearGradient id="paint0_linear_5_195" x1="2065.5" y1="121.5" x2="71.4998" y2="498.5" gradientUnits="userSpaceOnUse">
<stop stop-color="#E0E0E0"/>
<stop offset="0.480769" stop-color="#656565"/>
<stop offset="1" stop-color="#1B1B1B"/>
</linearGradient>
</defs>
</svg>
