<svg width="1795" height="741" viewBox="0 0 1795 741" fill="none" xmlns="http://www.w3.org/2000/svg">
<mask id="path-1-inside-1_5_197" fill="white">
<path d="M156.39 0H-190.658V202.459H221.651L248.464 294.578L113.388 427.189H-220V497.037H192.814L286.912 402.893H487.248L603.099 656.473H1295.68L1327.04 741H1496.01L1512.71 683.299H1795V463.631L1696.35 311.281H1544.07L1496.01 369.488H989.101L803.436 43.5287H557.062L503.943 84.5266H192.814L156.39 0Z"/>
</mask>
<path d="M-190.658 0H-690.658V-500H-190.658V0ZM156.39 0V-500H485.375L615.57 -197.873L156.39 0ZM192.814 84.5266V584.527H-136.171L-266.365 282.4L192.814 84.5266ZM503.943 84.5266L809.438 480.346L674.455 584.527H503.943V84.5266ZM557.062 43.5287L251.567 -352.29L386.551 -456.471H557.062V43.5287ZM803.436 43.5287V-456.471H1094.06L1237.9 -203.941L803.436 43.5287ZM989.101 369.488V869.488H698.478L554.637 616.957L989.101 369.488ZM1496.01 369.488L1881.57 687.836L1731.58 869.488H1496.01V369.488ZM1544.07 311.281L1158.52 -7.06739L1308.5 -188.719H1544.07V311.281ZM1696.35 311.281V-188.719H1968.26L2116.05 39.5175L1696.35 311.281ZM1795 463.631L2214.7 191.868L2295 315.885V463.631H1795ZM1795 683.299H2295V1183.3H1795V683.299ZM1512.71 683.299L1032.41 544.333L1136.87 183.299H1512.71V683.299ZM1496.01 741L1976.31 879.966L1871.85 1241H1496.01V741ZM1327.04 741V1241H979.266L858.276 914.948L1327.04 741ZM1295.68 656.473V156.473H1643.45L1764.44 482.525L1295.68 656.473ZM603.099 656.473V1156.47H281.821L148.314 864.248L603.099 656.473ZM487.248 402.893V-97.1066H808.527L942.034 195.119L487.248 402.893ZM286.912 402.893L-66.7279 49.4265L79.7335 -97.1066H286.912V402.893ZM192.814 497.037L546.454 850.504L399.993 997.037H192.814V497.037ZM-220 497.037V997.037H-720V497.037H-220ZM-220 427.189H-720V-72.8115H-220V427.189ZM113.388 427.189L463.671 783.982L317.803 927.188H113.388V427.189ZM248.464 294.578L728.541 154.843L812.098 441.914L598.747 651.372L248.464 294.578ZM221.651 202.459V-297.541H596.867L701.728 62.7244L221.651 202.459ZM-190.658 202.459V702.459H-690.658V202.459H-190.658ZM-190.658 0V-500H156.39V0V500H-190.658V0ZM156.39 0L615.57 -197.873L651.994 -113.346L192.814 84.5266L-266.365 282.4L-302.79 197.873L156.39 0ZM192.814 84.5266V-415.473H503.943V84.5266V584.527H192.814V84.5266ZM503.943 84.5266L198.448 -311.292L251.567 -352.29L557.062 43.5287L862.558 439.348L809.438 480.346L503.943 84.5266ZM557.062 43.5287V-456.471H803.436V43.5287V543.529H557.062V43.5287ZM803.436 43.5287L1237.9 -203.941L1423.57 122.018L989.101 369.488L554.637 616.957L368.972 290.998L803.436 43.5287ZM989.101 369.488V-130.512H1496.01V369.488V869.488H989.101V369.488ZM1496.01 369.488L1110.46 51.1396L1158.52 -7.06739L1544.07 311.281L1929.63 629.629L1881.57 687.836L1496.01 369.488ZM1544.07 311.281V-188.719H1696.35V311.281V811.281H1544.07V311.281ZM1696.35 311.281L2116.05 39.5175L2214.7 191.868L1795 463.631L1375.3 735.394L1276.65 583.044L1696.35 311.281ZM1795 463.631H2295V683.299H1795H1295V463.631H1795ZM1795 683.299V1183.3H1512.71V683.299V183.299H1795V683.299ZM1512.71 683.299L1993.01 822.265L1976.31 879.966L1496.01 741L1015.71 602.034L1032.41 544.333L1512.71 683.299ZM1496.01 741V1241H1327.04V741V241H1496.01V741ZM1327.04 741L858.276 914.948L826.91 830.421L1295.68 656.473L1764.44 482.525L1795.81 567.052L1327.04 741ZM1295.68 656.473V1156.47H603.099V656.473V156.473H1295.68V656.473ZM603.099 656.473L148.314 864.248L32.4628 610.668L487.248 402.893L942.034 195.119L1057.88 448.699L603.099 656.473ZM487.248 402.893V902.893H286.912V402.893V-97.1066H487.248V402.893ZM286.912 402.893L640.552 756.36L546.454 850.504L192.814 497.037L-160.825 143.57L-66.7279 49.4265L286.912 402.893ZM192.814 497.037V997.037H-220V497.037V-2.96313H192.814V497.037ZM-220 497.037H-720V427.189H-220H280V497.037H-220ZM-220 427.189V-72.8115H113.388V427.189V927.188H-220V427.189ZM113.388 427.189L-236.895 70.3948L-101.82 -62.2158L248.464 294.578L598.747 651.372L463.671 783.982L113.388 427.189ZM248.464 294.578L-231.614 434.312L-258.427 342.194L221.651 202.459L701.728 62.7244L728.541 154.843L248.464 294.578ZM221.651 202.459V702.459H-190.658V202.459V-297.541H221.651V202.459ZM-190.658 202.459H-690.658V0H-190.658H309.342V202.459H-190.658Z" fill="url(#paint0_linear_5_197)" fill-opacity="0.3" mask="url(#path-1-inside-1_5_197)"/>
<defs>
<linearGradient id="paint0_linear_5_197" x1="-333.322" y1="122.994" x2="1684.28" y2="504.269" gradientUnits="userSpaceOnUse">
<stop stop-color="#E0E0E0"/>
<stop offset="0.480769" stop-color="#656565"/>
<stop offset="1" stop-color="#1B1B1B"/>
</linearGradient>
</defs>
</svg>
