<svg xmlns="http://www.w3.org/2000/svg" width="20" height="20" viewBox="0 0 24 24" fill="#ffffff">
  <path d="M19.14 12.94c.04-.31.06-.63.06-.94s-.02-.63-.06-.94l2.03-1.58a.5.5 0 00.12-.64l-1.92-3.32a.5.5 0 00-.6-.22l-2.39.96a7.007 7.007 0 00-1.63-.95l-.36-2.54A.5.5 0 0014.5 2h-5a.5.5 0 00-.5.41l-.36 2.54c-.58.29-1.13.59-1.63.95L3.07 5.95a.5.5 0 00-.6.22L.55 9.49a.5.5 0 00.12.64L2.7 11.7c-.04.31-.06.63-.06.94s.02.63.06.94L.55 15.16a.5.5 0 00-.12.64l1.92 3.32c.14.24.44.34.69.25l2.39-.96c.5.36 1.05.66 1.63.95l.36 2.54c.05.28.28.48.55.48h5c.28 0 .5-.2.55-.48l.36-2.54c.58-.29 1.13-.59 1.63-.95l2.39.96c.25.09.55-.01.69-.25l1.92-3.32a.5.5 0 00-.12-.64l-2.03-1.58zM12 15.5A3.5 3.5 0 1112 8.5a3.5 3.5 0 010 7z"/>
</svg>