<svg width="80" height="80" viewBox="0 0 80 80" fill="none" xmlns="http://www.w3.org/2000/svg">
<g clip-path="url(#clip0_655_452)">
<mask id="mask0_655_452" style="mask-type:luminance" maskUnits="userSpaceOnUse" x="0" y="0" width="80" height="80">
<path d="M80 0H0V80H80V0Z" fill="white"/>
</mask>
<g mask="url(#mask0_655_452)">
<path d="M65.033 19.5L45.233 8.06667C41.9996 6.20001 37.9996 6.20001 34.733 8.06667L14.9664 19.5C11.733 21.3667 9.73303 24.8333 9.73303 28.6V51.4C9.73303 55.1333 11.733 58.6 14.9664 60.5L34.7663 71.9333C37.9996 73.8 41.9996 73.8 45.2663 71.9333L65.0663 60.5C68.2996 58.6333 70.2996 55.1667 70.2996 51.4V28.6C70.2663 24.8333 68.2663 21.4 65.033 19.5ZM39.9996 24.4667C44.2996 24.4667 47.7663 27.9333 47.7663 32.2333C47.7663 36.5333 44.2996 40 39.9996 40C35.6996 40 32.233 36.5333 32.233 32.2333C32.233 27.9667 35.6996 24.4667 39.9996 24.4667ZM48.933 55.5333H31.0664C28.3664 55.5333 26.7997 52.5333 28.2997 50.3C30.5664 46.9333 34.9663 44.6667 39.9996 44.6667C45.033 44.6667 49.433 46.9333 51.6996 50.3C53.1996 52.5 51.5996 55.5333 48.933 55.5333Z" fill="white"/>
</g>
</g>
<defs>
<clipPath id="clip0_655_452">
<rect width="80" height="80" fill="white"/>
</clipPath>
</defs>
</svg>
