<?xml version="1.0" encoding="UTF-8"?>
<svg width="1451" height="446" viewBox="0 0 1451 446" fill="none" xmlns="http://www.w3.org/2000/svg">
<mask id="path-1-inside-1_56_2636" fill="white">
<path d="M1243.93 0H0V423.316C-1.08562e-05 424.853 -1.79855e-05 434.466 4.23356 440.233C8.11625 445.522 15.3952 446 17.7046 446H1370.56L1407.12 413.319V227.998L1451 166.481V28.8362L1424.44 0H1407.12L1390.57 17.3017H1265.49L1243.93 0Z"/>
</mask>
<path d="M0 0V-500H-500V0H0ZM1243.93 0L1556.93 -389.913L1419.79 -500H1243.93V0ZM1265.49 17.3017L952.489 407.214L1089.63 517.302H1265.49V17.3017ZM1390.57 17.3017V517.302H1604.21L1751.89 362.918L1390.57 17.3017ZM1407.12 0V-500H1193.48L1045.81 -345.616L1407.12 0ZM1424.44 0L1792.23 -338.718L1643.7 -500H1424.44V0ZM1451 28.8362H1951V-166.325L1818.79 -309.882L1451 28.8362ZM1451 166.481L1858.07 456.817L1951 326.522V166.481H1451ZM1407.12 227.998L1000.06 -62.3379L907.124 67.9573V227.998H1407.12ZM1407.12 413.319L1740.33 786.111L1907.12 637.029V413.319H1407.12ZM1370.56 446V946H1561.44L1703.77 818.792L1370.56 446ZM4.23356 440.233L-398.827 736.109L-398.826 736.109L4.23356 440.233ZM0 423.316L500 423.319V423.316H0ZM0 0V500H1243.93V0V-500H0V0ZM1243.93 0L930.936 389.913L952.489 407.214L1265.49 17.3017L1578.49 -372.611L1556.93 -389.913L1243.93 0ZM1265.49 17.3017V517.302H1390.57V17.3017V-482.698H1265.49V17.3017ZM1390.57 17.3017L1751.89 362.918L1768.44 345.616L1407.12 0L1045.81 -345.616L1029.26 -328.315L1390.57 17.3017ZM1407.12 0V500H1424.44V0V-500H1407.12V0ZM1424.44 0L1056.65 338.718L1083.21 367.554L1451 28.8362L1818.79 -309.882L1792.23 -338.718L1424.44 0ZM1451 28.8362H951V166.481H1451H1951V28.8362H1451ZM1451 166.481L1043.93 -123.855L1000.06 -62.3379L1407.12 227.998L1814.19 518.334L1858.07 456.817L1451 166.481ZM1407.12 227.998H907.124V413.319H1407.12H1907.12V227.998H1407.12ZM1407.12 413.319L1073.92 40.5267L1037.35 73.2078L1370.56 446L1703.77 818.792L1740.33 786.111L1407.12 413.319ZM1370.56 446V-54H17.7046V446V946H1370.56V446ZM17.7046 446V-54C45.2018 -54 95.4935 -51.7936 155.661 -33.6847C215.07 -15.804 323.254 29.8738 407.293 144.356L4.23356 440.233L-398.826 736.109C-310.904 855.881 -197.14 904.442 -132.543 923.884C-67.1878 943.555 -12.1019 946 17.7046 946V446ZM4.23356 440.233L407.294 144.357C444.238 194.684 464.047 241.971 474.752 273.19C485.794 305.39 491.316 332.809 494.282 351.395C497.351 370.63 498.68 386.815 499.318 398.448C499.65 404.518 499.823 409.906 499.912 414.437C499.957 416.712 499.979 418.72 499.99 420.391C500.001 422.022 500 423.322 500 423.319L0 423.316L-500 423.312C-500 431.648 -500.086 465.975 -493.223 508.981C-488.179 540.595 -470.951 637.856 -398.827 736.109L4.23356 440.233ZM0 423.316H500V0H0H-500V423.316H0Z" fill="#C4C4C4" mask="url(#path-1-inside-1_56_2636)"/>
</svg>