<svg width="661" height="460" viewBox="0 0 661 460" fill="none" xmlns="http://www.w3.org/2000/svg">
<mask id="path-1-inside-1_37_1150" fill="white">
<path d="M120.412 60.2283L63.9533 2.5H63.9649V0H684V60.2283V367.022V460H0L79.9416 367.022H684V60.2283L616.05 2.5H436.681L400.207 60.2283H120.412Z"/>
</mask>
<path d="M684 60.2283H634V367.022H684H734V60.2283H684ZM63.9533 2.5V-97.5H-173.723L-7.53917 72.4202L63.9533 2.5ZM120.412 60.2283L48.9196 130.148L78.3379 160.228H120.412V60.2283ZM400.207 60.2283V160.228H455.314L484.748 113.642L400.207 60.2283ZM436.681 2.5V-97.5H381.575L352.141 -50.9133L436.681 2.5ZM616.05 2.5L680.795 -73.7103L652.793 -97.5H616.05V2.5ZM684 60.2283L619.254 136.439L784 276.401V60.2283H684ZM684 367.022H784V267.022H684V367.022ZM79.9416 367.022V267.022H34.0403L4.11509 301.827L79.9416 367.022ZM0 460L-75.8265 394.805L-217.859 560H0V460ZM684 460V560H784V460H684ZM684 0H784V-100H684V0ZM63.9649 0V-100H-36.0351V0H63.9649ZM63.9649 2.5V102.5H163.965V2.5H63.9649ZM63.9533 2.5L-7.53917 72.4202L48.9196 130.148L120.412 60.2283L191.904 -9.69193L135.446 -67.4202L63.9533 2.5ZM120.412 60.2283V160.228H400.207V60.2283V-39.7717H120.412V60.2283ZM400.207 60.2283L484.748 113.642L521.221 55.9133L436.681 2.5L352.141 -50.9133L315.667 6.81497L400.207 60.2283ZM436.681 2.5V102.5H616.05V2.5V-97.5H436.681V2.5ZM616.05 2.5L551.304 78.7103L619.254 136.439L684 60.2283L748.746 -15.982L680.795 -73.7103L616.05 2.5ZM684 367.022V267.022H79.9416V367.022V467.022H684V367.022ZM79.9416 367.022L4.11509 301.827L-75.8265 394.805L0 460L75.8265 525.195L155.768 432.216L79.9416 367.022ZM0 460V560H684V460V360H0V460ZM684 460H784V367.022H684H584V460H684ZM684 60.2283H784V0H684H584V60.2283H684ZM684 0V-100H63.9649V0V100H684V0ZM63.9649 0H-36.0351V2.5H63.9649H163.965V0H63.9649ZM63.9649 2.5V-97.5H63.9533V2.5V102.5H63.9649V2.5Z" fill="#050505" mask="url(#path-1-inside-1_37_1150)"/>
</svg>
