<svg width="482" height="519" viewBox="0 0 482 519" fill="none" xmlns="http://www.w3.org/2000/svg">
<rect width="482" height="519" rx="40" fill="#F2F2F2"/>
<rect width="482" height="519" rx="40" stroke="#313131"/>
<path d="M124.499 222.203C122.769 222.203 121.039 221.992 119.381 221.499C81.9698 211.43 54.8663 177.278 54.8663 140.238V109.325C54.8663 101.439 60.7052 92.9185 68.2018 89.8906L108.352 73.8354C118.805 69.6808 130.265 69.6808 140.645 73.8354L180.796 89.8906C188.292 92.9185 194.132 101.439 194.132 109.325V140.238C194.132 177.207 166.956 211.359 129.616 221.499C127.959 221.992 126.229 222.203 124.499 222.203ZM124.499 81.3701C120.39 81.3701 116.353 82.1448 112.461 83.694L72.3106 99.7487C68.8506 101.157 65.6788 105.734 65.6788 109.396V140.309C65.6788 172.63 89.4664 202.487 122.264 211.359C123.706 211.782 125.291 211.782 126.733 211.359C159.531 202.487 183.319 172.63 183.319 140.309V109.396C183.319 105.734 180.147 101.157 176.687 99.7487L136.537 83.694C132.645 82.1448 128.607 81.3701 124.499 81.3701Z" fill="#818181"/>
</svg>
