<svg width="604" height="735" viewBox="0 0 604 735" fill="none" xmlns="http://www.w3.org/2000/svg">
<mask id="path-1-inside-1_5_587" fill="white">
<path d="M444.803 51.641L486.038 0H193.011L237.755 51.641H444.803Z"/>
<path d="M96.5057 646.574H603.599C603.599 691.141 602.546 702.601 584.298 717.315C566.049 732.029 550.667 733.821 542.186 735H0L96.5057 646.574Z"/>
</mask>
<path d="M486.038 0L876.762 311.985L1525.11 -500H486.038V0ZM444.803 51.641V551.641H685.401L835.527 363.626L444.803 51.641ZM237.755 51.641L-140.133 379.056L9.40028 551.641H237.755V51.641ZM193.011 0V-500H-901.777L-184.877 327.415L193.011 0ZM603.599 646.574H1103.6V146.574H603.599V646.574ZM96.5057 646.574V146.574H-97.9259L-241.279 277.926L96.5057 646.574ZM0 735L-337.785 366.352L-1285.8 1235H0V735ZM542.186 735V1235H576.775L611.035 1230.24L542.186 735ZM584.298 717.315L898.144 1106.55L898.145 1106.54L584.298 717.315ZM486.038 0L95.3134 -311.985L54.0792 -260.344L444.803 51.641L835.527 363.626L876.762 311.985L486.038 0ZM444.803 51.641V-448.359H237.755V51.641V551.641H444.803V51.641ZM237.755 51.641L615.643 -275.774L570.899 -327.415L193.011 0L-184.877 327.415L-140.133 379.056L237.755 51.641ZM193.011 0V500H486.038V0V-500H193.011V0ZM603.599 646.574V146.574H96.5057V646.574V1146.57H603.599V646.574ZM96.5057 646.574L-241.279 277.926L-337.785 366.352L0 735L337.785 1103.65L434.291 1015.22L96.5057 646.574ZM0 735V1235H542.186V735V235H0V735ZM542.186 735L611.035 1230.24C608.859 1230.54 625.949 1228.34 644.56 1224.74C665.113 1220.77 690.916 1214.65 720.009 1204.8C780.417 1184.33 841.245 1152.43 898.144 1106.55L584.298 717.315L270.451 328.084C309.103 296.919 353.115 273.265 399.149 257.67C442.337 243.039 480.157 238.815 473.338 239.763L542.186 735ZM584.298 717.315L898.145 1106.54C969.565 1048.96 1051.1 954.807 1086.13 813.315C1106.51 731.02 1103.6 648.147 1103.6 646.574H603.599H103.599C103.599 658.53 103.45 655.768 103.791 649.045C104.106 642.823 105.617 612.67 115.449 572.963C126.852 526.909 147.894 473.621 184.24 421.248C218.033 372.555 253.163 342.024 270.451 328.085L584.298 717.315Z" fill="#313131" mask="url(#path-1-inside-1_5_587)"/>
</svg>