<svg width="126" height="636" viewBox="0 0 126 636" fill="none" xmlns="http://www.w3.org/2000/svg">
<mask id="path-1-inside-1_563_393" fill="white">
<path d="M125.5 635.5V0L0 104V243L22.5 260.5V377.5L0 402.5V542L125.5 635.5Z"/>
</mask>
<path d="M125.5 0H625.5V-1063.71L-193.535 -384.989L125.5 0ZM125.5 635.5L-173.221 1036.46L625.5 1631.52V635.5H125.5ZM0 542H-500V792.999L-298.721 942.956L0 542ZM0 402.5L-371.647 68.0176L-500 210.632V402.5H0ZM22.5 377.5L394.147 711.982L522.5 569.368V377.5H22.5ZM22.5 260.5H522.5V15.9581L329.47 -134.176L22.5 260.5ZM0 243H-500V487.542L-306.97 637.676L0 243ZM0 104L-319.035 -280.989L-500 -131.026V104H0ZM125.5 0H-374.5V635.5H125.5H625.5V0H125.5ZM125.5 635.5L424.221 234.544L298.721 141.044L0 542L-298.721 942.956L-173.221 1036.46L125.5 635.5ZM0 542H500V402.5H0H-500V542H0ZM0 402.5L371.647 736.982L394.147 711.982L22.5 377.5L-349.147 43.0176L-371.647 68.0176L0 402.5ZM22.5 377.5H522.5V260.5H22.5H-477.5V377.5H22.5ZM22.5 260.5L329.47 -134.176L306.97 -151.676L0 243L-306.97 637.676L-284.47 655.176L22.5 260.5ZM0 243H500V104H0H-500V243H0ZM0 104L319.035 488.989L444.535 384.989L125.5 0L-193.535 -384.989L-319.035 -280.989L0 104Z" fill="black" mask="url(#path-1-inside-1_563_393)"/>
</svg>
