<svg width="29" height="31" viewBox="0 0 29 31" fill="none" xmlns="http://www.w3.org/2000/svg">
<path d="M14.5 30.1057C6.77721 30.1057 0.5 23.4685 0.5 15.3029C0.5 7.13719 6.77721 0.5 14.5 0.5C22.2228 0.5 28.5 7.13719 28.5 15.3029C28.5 23.4685 22.2228 30.1057 14.5 30.1057ZM14.5 2.56552C7.85814 2.56552 2.45349 8.28011 2.45349 15.3029C2.45349 22.3256 7.85814 28.0402 14.5 28.0402C21.1419 28.0402 26.5465 22.3256 26.5465 15.3029C26.5465 8.28011 21.1419 2.56552 14.5 2.56552Z" fill="#505050" stroke="#505050"/>
<path d="M19.4154 20.59C19.2289 20.59 19.0424 20.5485 18.8702 20.4378L14.4225 17.8781C13.3178 17.2416 12.5 15.8441 12.5 14.6126V8.9396C12.5 8.3723 12.9878 7.90186 13.576 7.90186C14.1643 7.90186 14.6521 8.3723 14.6521 8.9396V14.6126C14.6521 15.1107 15.0825 15.8441 15.5273 16.0931L19.9749 18.6529C20.4914 18.9435 20.6492 19.58 20.348 20.0781C20.1327 20.4102 19.7741 20.59 19.4154 20.59Z" fill="#505050" stroke="#505050"/>
</svg>
