<svg width="491" height="53" viewBox="0 0 491 53" fill="none" xmlns="http://www.w3.org/2000/svg">
<mask id="path-1-inside-1_92_1046" fill="white">
<path d="M438 0H0V53H491L438 0Z"/>
</mask>
<path d="M0 0V-100H-100V0H0ZM438 0L508.711 -70.7107L479.421 -100H438V0ZM491 53V153H732.421L561.711 -17.7107L491 53ZM0 53H-100V153H0V53ZM0 0V100H438V0V-100H0V0ZM438 0L367.289 70.7107L420.289 123.711L491 53L561.711 -17.7107L508.711 -70.7107L438 0ZM491 53V-47H0V53V153H491V53ZM0 53H100V0H0H-100V53H0Z" fill="black" mask="url(#path-1-inside-1_92_1046)"/>
</svg>
