<svg width="19" height="20" viewBox="0 0 19 20" fill="none" xmlns="http://www.w3.org/2000/svg">
<path d="M13.4492 18.6984H4.94922C2.39922 18.6984 0.699219 17.3485 0.699219 14.1988V9.69919C0.699219 6.54947 2.39922 5.19958 4.94922 5.19958H13.4492C15.9992 5.19958 17.6992 6.54947 17.6992 9.69919V14.1988C17.6992 17.3485 15.9992 18.6984 13.4492 18.6984Z" stroke="#534F4F" stroke-width="1.4" stroke-miterlimit="10" stroke-linecap="round" stroke-linejoin="round"/>
<path d="M4.09961 2.94983H14.2996" stroke="#534F4F" stroke-width="1.4" stroke-miterlimit="10" stroke-linecap="round" stroke-linejoin="round"/>
<path d="M6.64844 0.699951H11.7484" stroke="#534F4F" stroke-width="1.4" stroke-miterlimit="10" stroke-linecap="round" stroke-linejoin="round"/>
<path d="M6.55512 16.0977C7.19825 16.0977 7.71961 15.5457 7.71961 14.8649C7.71961 14.184 7.19825 13.632 6.55512 13.632C5.91198 13.632 5.39062 14.184 5.39062 14.8649C5.39062 15.5457 5.91198 16.0977 6.55512 16.0977Z" stroke="#534F4F" stroke-width="1.4" stroke-linecap="round" stroke-linejoin="round"/>
<path d="M11.9877 14.0458V9.23112C11.9877 8.20521 11.3842 8.06131 10.7637 8.24129L8.4347 8.91624C8.0097 9.04222 7.7207 9.3931 7.7207 9.90606V10.7611V11.337V14.8647" stroke="#534F4F" stroke-width="1.4" stroke-linecap="round" stroke-linejoin="round"/>
<path d="M10.8227 15.2787C11.4659 15.2787 11.9873 14.7266 11.9873 14.0458C11.9873 13.3648 11.4659 12.8129 10.8227 12.8129C10.1796 12.8129 9.6582 13.3648 9.6582 14.0458C9.6582 14.7266 10.1796 15.2787 10.8227 15.2787Z" stroke="#534F4F" stroke-width="1.4" stroke-linecap="round" stroke-linejoin="round"/>
<path d="M7.7207 11.3461L11.9877 10.1132" stroke="#534F4F" stroke-width="1.4" stroke-linecap="round" stroke-linejoin="round"/>
</svg>
