<svg width="27" height="29" viewBox="0 0 27 29" fill="none" xmlns="http://www.w3.org/2000/svg">
<path d="M13.5 28.5484C9.6336 28.5484 6.6096 26.5157 4.5576 24.5059V26.1275C4.5576 27.0639 3.8232 27.8404 2.9376 27.8404C2.052 27.8404 1.3176 27.0639 1.3176 26.1275V19.8468C1.3176 18.9104 2.052 18.1339 2.9376 18.1339H8.2944C9.18 18.1339 9.9144 18.9104 9.9144 19.8468C9.9144 20.7832 9.18 21.5597 8.2944 21.5597H6.3504C7.9488 23.2498 10.4328 25.1226 13.5 25.1226C19.1592 25.1226 23.76 20.2579 23.76 14.2742C23.76 13.3378 24.4944 12.5613 25.38 12.5613C26.2656 12.5613 27 13.3378 27 14.2742C27 22.1535 20.952 28.5484 13.5 28.5484ZM1.62 15.9871C0.7344 15.9871 0 15.2106 0 14.2742C0 6.39484 6.048 0 13.5 0C18.144 0 21.5568 2.124 23.76 4.15665V2.4209C23.76 1.48452 24.4944 0.708 25.38 0.708C26.2656 0.708 27 1.48452 27 2.4209V8.67871C27 8.74723 27 8.81574 27 8.86142C26.9784 9.11265 26.9136 9.34103 26.8056 9.54658C26.6976 9.75213 26.5464 9.93484 26.352 10.0947C26.2008 10.2089 26.028 10.3003 25.8336 10.3688C25.6824 10.4145 25.5312 10.4373 25.38 10.4373H20.1312C19.2456 10.4373 18.5112 9.66077 18.5112 8.72439C18.5112 7.788 19.2456 7.01148 20.1312 7.01148H21.924C20.196 5.32142 17.4096 3.44865 13.5432 3.44865C7.884 3.44865 3.2832 8.31329 3.2832 14.297C3.24 15.2106 2.5056 15.9871 1.62 15.9871Z" fill="#505050"/>
</svg>
