<svg width="604" height="735" viewBox="0 0 604 735" fill="none" xmlns="http://www.w3.org/2000/svg">
<mask id="path-1-inside-1_5_587" fill="white">
<path d="M444.803 51.641L486.038 0H193.011L237.755 51.641H444.803Z"/>
<path d="M96.5057 646.574H603.599C603.599 691.141 604.14 717.5 592.359 727C580.577 736.5 550.667 733.821 542.186 735H0L96.5057 646.574Z"/>
</mask>
<path d="M486.038 0L876.762 311.985L1525.11 -500L486.038 -500V0ZM444.803 51.641V551.641H685.401L835.527 363.626L444.803 51.641ZM237.755 51.641L-140.133 379.056L9.40028 551.641H237.755V51.641ZM193.011 0V-500H-901.777L-184.877 327.415L193.011 0ZM603.599 646.574H1103.6V146.574H603.599V646.574ZM96.5057 646.574V146.574H-97.9259L-241.279 277.926L96.5057 646.574ZM0 735L-337.785 366.352L-1285.8 1235H0V735ZM542.186 735V1235H576.776L611.035 1230.24L542.186 735ZM486.038 0L95.3134 -311.985L54.0792 -260.344L444.803 51.641L835.527 363.626L876.762 311.985L486.038 0ZM444.803 51.641V-448.359H237.755V51.641V551.641H444.803V51.641ZM237.755 51.641L615.643 -275.774L570.899 -327.415L193.011 0L-184.877 327.415L-140.133 379.056L237.755 51.641ZM193.011 0V500H486.038V0V-500H193.011V0ZM603.599 646.574V146.574H96.5057V646.574V1146.57H603.599V646.574ZM96.5057 646.574L-241.279 277.926L-337.785 366.352L0 735L337.785 1103.65L434.291 1015.22L96.5057 646.574ZM0 735V1235H542.186V735V235H0V735ZM542.186 735L611.035 1230.24C585.377 1233.8 565.491 1234.34 563.873 1234.4C559.504 1234.55 556.017 1234.58 559.49 1234.53C562.092 1234.49 579.449 1234.33 599.184 1233.02C617.841 1231.78 654.213 1228.66 697.507 1218.27C734.51 1209.38 820.546 1185.3 906.206 1116.23L592.359 727L278.511 337.77C320.904 303.587 361.359 282.776 390.726 270.229C420.451 257.529 446.085 250.214 463.975 245.917C498.083 237.726 524.238 235.795 532.885 235.22C542.609 234.574 550.162 234.559 544.404 234.645C543.696 234.656 536.389 234.747 528.714 235.017C523.791 235.19 501.116 235.901 473.337 239.763L542.186 735ZM592.359 727L906.206 1116.23C1002.03 1038.96 1048.05 946.276 1070.03 884.645C1090.99 825.874 1097.36 775.146 1099.91 749.784C1104.41 704.785 1103.6 654.049 1103.6 646.574H603.599H103.599C103.599 683.665 103.054 668.392 104.888 650.09C106.092 638.076 110.39 598.505 128.137 548.74C146.905 496.116 188.573 410.29 278.511 337.77L592.359 727Z" fill="#313131" mask="url(#path-1-inside-1_5_587)"/>
</svg>
