<svg width="294" height="52" viewBox="0 0 294 52" fill="none" xmlns="http://www.w3.org/2000/svg">
<mask id="path-1-inside-1_398_420" fill="white">
<path d="M251.792 51.641L293.026 0H0L44.7435 51.641H251.792Z"/>
</mask>
<path d="M293.026 0L683.75 311.985L1332.1 -500H293.026V0ZM251.792 51.641V551.641H492.39L642.516 363.626L251.792 51.641ZM44.7435 51.641L-333.144 379.056L-183.611 551.641H44.7435V51.641ZM0 0V-500H-1094.79L-377.888 327.415L0 0ZM293.026 0L-97.698 -311.985L-138.932 -260.344L251.792 51.641L642.516 363.626L683.75 311.985L293.026 0ZM251.792 51.641V-448.359H44.7435V51.641V551.641H251.792V51.641ZM44.7435 51.641L422.632 -275.774L377.888 -327.415L0 0L-377.888 327.415L-333.144 379.056L44.7435 51.641ZM0 0V500H293.026V0V-500H0V0Z" fill="#313131" mask="url(#path-1-inside-1_398_420)"/>
</svg>
