<svg width="604" height="89" viewBox="0 0 604 89" fill="none" xmlns="http://www.w3.org/2000/svg">
<mask id="path-1-inside-1_5_587" fill="white">
<path d="M96.5057 0H603.599C603.599 44.5669 604.14 70.9263 592.359 80.4263C580.577 89.9263 550.667 87.2473 542.186 88.4263H0L96.5057 0Z"/>
</mask>
<path d="M603.599 0H1103.6V-500H603.599V0ZM96.5057 0V-500H-97.9259L-241.279 -368.648L96.5057 0ZM0 88.4263L-337.785 -280.221L-1285.8 588.426L0 588.426V88.4263ZM542.186 88.4263V588.426H576.776L611.035 583.663L542.186 88.4263ZM603.599 0V-500H96.5057V0V500H603.599V0ZM96.5057 0L-241.279 -368.648L-337.785 -280.221L0 88.4263L337.785 457.074L434.291 368.648L96.5057 0ZM0 88.4263V588.426H542.186V88.4263V-411.574H0V88.4263ZM542.186 88.4263L611.035 583.663C585.377 587.231 565.491 587.768 563.873 587.825C559.504 587.978 556.017 588.01 559.49 587.958C562.092 587.919 579.449 587.758 599.184 586.447C617.841 585.207 654.213 582.091 697.507 571.693C734.51 562.806 820.546 538.726 906.206 469.656L592.359 80.4263L278.511 -308.804C320.904 -342.986 361.359 -363.798 390.726 -376.345C420.451 -389.045 446.085 -396.359 463.975 -400.656C498.083 -408.848 524.238 -410.779 532.885 -411.353C542.609 -411.999 550.162 -412.015 544.404 -411.928C543.696 -411.918 536.389 -411.827 528.714 -411.557C523.791 -411.384 501.116 -410.673 473.337 -406.811L542.186 88.4263ZM592.359 80.4263L906.206 469.656C1002.03 392.387 1048.05 299.703 1070.03 238.072C1090.99 179.3 1097.36 128.572 1099.91 103.21C1104.41 58.2113 1103.6 7.47513 1103.6 0H603.599H103.599C103.599 37.0918 103.054 21.8187 104.888 3.51646C106.092 -8.49718 110.39 -48.0687 128.137 -97.8336C146.905 -150.458 188.573 -236.284 278.511 -308.804L592.359 80.4263Z" fill="#313131" mask="url(#path-1-inside-1_5_587)"/>
</svg>
