<svg width="343" height="33" viewBox="0 0 343 33" fill="none" xmlns="http://www.w3.org/2000/svg">
<mask id="path-1-inside-1_5_608" fill="white">
<path d="M0 0V32.5H7H342.5L309.5 0H0Z"/>
</mask>
<path d="M0 32.5H-700V732.5H0V32.5ZM0 0V-700H-700V0H0ZM309.5 0L800.682 -498.739L596.324 -700H309.5V0ZM342.5 32.5V732.5H2050.86L833.682 -466.239L342.5 32.5ZM0 32.5H700V0H0H-700V32.5H0ZM0 0V700H309.5V0V-700H0V0ZM309.5 0L-181.682 498.739L-148.682 531.239L342.5 32.5L833.682 -466.239L800.682 -498.739L309.5 0ZM342.5 32.5V-667.5H7V32.5V732.5H342.5V32.5ZM7 32.5V-667.5H0V32.5V732.5H7V32.5Z" fill="#C1C1C1" mask="url(#path-1-inside-1_5_608)"/>
</svg>
