<svg width="664" height="588" viewBox="0 0 664 588" fill="none" xmlns="http://www.w3.org/2000/svg">
<mask id="path-1-inside-1_37_1416" fill="white">
<path d="M120.412 58.2283L63.9533 0.5H47.9649V0H684V588H0L79.9416 495.022H661.516V58.2283L616.05 0.5H436.681L400.207 58.2283H120.412Z"/>
</mask>
<path d="M63.9533 0.5L135.446 -69.4202L106.027 -99.5H63.9533V0.5ZM120.412 58.2283L48.9196 128.148L78.3379 158.228H120.412V58.2283ZM400.207 58.2283V158.228H455.314L484.748 111.642L400.207 58.2283ZM436.681 0.5V-99.5H381.575L352.141 -52.9133L436.681 0.5ZM616.05 0.5L694.61 -61.3737L664.581 -99.5H616.05V0.5ZM661.516 58.2283H761.516V23.5768L740.076 -3.64541L661.516 58.2283ZM661.516 495.022V595.022H761.516V495.022H661.516ZM79.9416 495.022V395.022H34.0403L4.11509 429.827L79.9416 495.022ZM0 588L-75.8265 522.805L-217.859 688H0V588ZM684 588V688H784V588H684ZM684 0H784V-100H684V0ZM47.9649 0V-100H-52.0351V0H47.9649ZM47.9649 0.5H-52.0351V100.5H47.9649V0.5ZM63.9533 0.5L-7.53917 70.4202L48.9196 128.148L120.412 58.2283L191.904 -11.6919L135.446 -69.4202L63.9533 0.5ZM120.412 58.2283V158.228H400.207V58.2283V-41.7717H120.412V58.2283ZM400.207 58.2283L484.748 111.642L521.221 53.9133L436.681 0.5L352.141 -52.9133L315.667 4.81497L400.207 58.2283ZM436.681 0.5V100.5H616.05V0.5V-99.5H436.681V0.5ZM616.05 0.5L537.49 62.3737L582.957 120.102L661.516 58.2283L740.076 -3.64541L694.61 -61.3737L616.05 0.5ZM661.516 58.2283H561.516V495.022H661.516H761.516V58.2283H661.516ZM661.516 495.022V395.022H79.9416V495.022V595.022H661.516V495.022ZM79.9416 495.022L4.11509 429.827L-75.8265 522.805L0 588L75.8265 653.195L155.768 560.216L79.9416 495.022ZM0 588V688H684V588V488H0V588ZM684 588H784V0H684H584V588H684ZM684 0V-100H47.9649V0V100H684V0ZM47.9649 0H-52.0351V0.5H47.9649H147.965V0H47.9649ZM47.9649 0.5V100.5H63.9533V0.5V-99.5H47.9649V0.5Z" fill="#050505" mask="url(#path-1-inside-1_37_1416)"/>
</svg>
