<svg width="73" height="70" viewBox="0 0 73 70" fill="none" xmlns="http://www.w3.org/2000/svg">
<path d="M36.4994 66.3565C35.7694 66.3565 35.0397 66.269 34.3401 66.0649C18.5537 61.894 7.117 47.7482 7.117 32.4065V19.6022C7.117 16.3356 9.58078 12.8066 12.7441 11.5524L29.6862 4.9023C34.0968 3.18146 38.9327 3.18146 43.3127 4.9023L60.2548 11.5524C63.4181 12.8066 65.8822 16.3356 65.8822 19.6022V32.4065C65.8822 47.719 54.4148 61.8649 38.659 66.0649C37.9594 66.269 37.2294 66.3565 36.4994 66.3565ZM36.4994 8.02316C34.7656 8.02316 33.0623 8.34405 31.4198 8.98572L14.4779 15.6356C13.0179 16.2189 11.6795 18.1148 11.6795 19.6314V32.4357C11.6795 45.8232 21.717 58.1899 35.5565 61.8649C36.1648 62.0399 36.834 62.0399 37.4423 61.8649C51.2819 58.1899 61.3197 45.8232 61.3197 32.4357V19.6314C61.3197 18.1148 59.981 16.2189 58.521 15.6356L41.5793 8.98572C39.9368 8.34405 38.2331 8.02316 36.4994 8.02316Z" fill="#818181"/>
</svg>
